# xmcd CD database file
# Copyright (C) 1993-1996 Ti Kan
#
# Track frame offsets:
# 150
# 11750
# 21048
# 34345
# 48273
# 61220
# 75478
# 87440
# 99945
# 111288
# 126395
# 137160
# 152053
# 164158
# 175358
# 185795
#
# Disc length: 2644 seconds
#
# Revision: 0
# Processed by: cddbd v1.4b41PL1 Copyright (c) Steve Scherf et al.
# Submitted via: inCDius 1.1b5
#
DISCID=da0a5210
DTITLE=Johnny Paycheck - 16 Greatest Hits
DYEAR=1900
DGENRE=
TTITLE0=Take This Job And Shove It
TTITLE1=Mr. Lovemaker
TTITLE2=(Don't Take Her) She's All I Got
TTITLE3=Only Hell Mama Ever Raised
TTITLE4=Song and Dance Man
TTITLE5=Almost Persuaded
TTITLE6=Heartache By The Numbers
TTITLE7=There Goes My Everything
TTITLE8=Apartment # 9
TTITLE9=Green Green Grass Of Home
TTITLE10=Don't Monkey With Another Monkey's Monkey
TTITLE11=Someone To Give My Love To
TTITLE12=Something About You I Love
TTITLE13=For A Minute There
TTITLE14=A-11
TTITLE15=Heaven's Almost As Big As Texas
EXTD=
EXTT0=
EXTT1=
EXTT2=
EXTT3=
EXTT4=
EXTT5=
EXTT6=
EXTT7=
EXTT8=
EXTT9=
EXTT10=
EXTT11=
EXTT12=
EXTT13=
EXTT14=
EXTT15=
PLAYORDER=
